<?xml version="1.0" encoding="UTF-8"?>
<svg width="32px" height="32px" viewBox="0 0 32 32" version="1.1" xmlns="http://www.w3.org/2000/svg" xmlns:xlink="http://www.w3.org/1999/xlink">
    <!-- Generator: Sketch 46.2 (44496) - http://www.bohemiancoding.com/sketch -->
    <title>Logo Copy</title>
    <desc>Created with Sketch.</desc>
    <defs></defs>
    <g id="System" stroke="none" stroke-width="1" fill="none" fill-rule="evenodd">
        <g id="Logo-Copy" fill="#000000">
            <path d="M24.4335622,12.8294615 L32,17.0666667 L32,31.2163265 L23.1111111,31.9274376 L0,31.2163265 L0,17.0666667 L11.104329,14.674965 L11.5555556,2.64225734 C11.8015861,2.30297467 12.3941787,2.13333333 13.3333333,2.13333333 C14.2724879,2.13333333 14.8650805,2.30297467 15.1111111,2.64225734 L15.5266192,13.7224718 L19.6551753,12.8332443 L20.1481481,0.508924002 C20.4105808,0.169641334 21.0426795,3.64974189e-14 22.0444444,0 C23.0462094,-3.59306549e-14 23.6783081,0.169641334 23.9407407,0.508924002 L24.4335622,12.8294615 Z M15.68,19.073645 L15.68,28.5337941 L20.0711111,28.4748487 L20.0711111,18.4339905 C19.8991236,17.1180015 19.1672717,16.5681302 17.8755556,16.7843765 C16.5838394,17.0006227 15.8519875,17.7637123 15.68,19.073645 Z M2.84444444,20.9100397 L2.84444444,28.7073648 L6.22222222,28.6523876 L6.22222222,20.4435842 C6.22222222,19.3450136 5.65925926,18.8962961 4.53333333,19.0974317 C3.40740741,19.2985673 2.84444444,19.9027699 2.84444444,20.9100397 Z M8.92444444,20.0606367 L8.92444444,28.6188966 L12.64,28.5710132 L12.64,19.5095775 C12.5576442,18.328151 11.9383849,17.8369749 10.7822222,18.0360491 C9.62605955,18.2351232 9.00680029,18.9099858 8.92444444,20.0606367 Z" id="Combined-Shape"></path>
        </g>
    </g>
</svg>